<?xml version='1.0' encoding='iso-8859-1'?>
<svg version="1.1" xmlns="http://www.w3.org/2000/svg" viewBox="0 0 463 463" xmlns:xlink="http://www.w3.org/1999/xlink" enable-background="new 0 0 463 463">
  <g>
    <path d="M359,176.723V127.5C359,57.196,301.804,0,231.5,0S104,57.196,104,127.5v49.223c-18.205,3.515-32,19.561-32,38.777v88   C72,391.449,143.552,463,231.5,463S391,391.449,391,303.5v-88C391,196.284,377.205,180.238,359,176.723z M231.5,15   C293.532,15,344,65.467,344,127.5V176h-17v-48.5c0-52.659-42.841-95.5-95.5-95.5S136,74.841,136,127.5V176h-17v-48.5   C119,65.467,169.468,15,231.5,15z M151,176v-48.5c0-44.388,36.112-80.5,80.5-80.5S312,83.112,312,127.5V176H151z M376,303.5   c0,79.678-64.822,144.5-144.5,144.5S87,383.178,87,303.5v-88c0-13.509,10.99-24.5,24.5-24.5h240c13.51,0,24.5,10.991,24.5,24.5   V303.5z"/>
    <path d="m271,295.5c0-12.12-5.448-23.399-14.948-30.944-9.504-7.549-21.872-10.271-33.925-7.468-14.128,3.283-25.483,14.51-28.929,28.604-3.81,15.584 1.84,31.416 14.173,40.925l-5.875,38.512c-0.685,4.483 0.621,9.024 3.582,12.458 2.949,3.421 7.225,5.38 11.739,5.38 0.019,0 0.038,0 0.057,0l29.37-.106c4.515-0.017 8.787-1.994 11.722-5.424s4.227-7.958 3.544-12.42l-5.88-38.409c9.589-7.434 15.37-18.937 15.37-31.108zm-27.272,21.079c-2.663,1.55-4.107,4.571-3.642,7.617l6.596,43.088c0.01,0.063 0.034,0.227-0.114,0.4-0.149,0.174-0.315,0.175-0.378,0.175l-29.369,.106c-0.084,0-0.232-0.001-0.381-0.173-0.149-0.174-0.125-0.339-0.115-0.402l6.59-43.198c0.465-3.044-0.979-6.064-3.642-7.613-9.67-5.627-14.186-16.354-11.504-27.326 2.083-8.517 9.217-15.572 17.753-17.556 2.03-0.472 4.049-0.705 6.031-0.705 5.523,0 10.765,1.81 15.17,5.308 5.896,4.683 9.277,11.681 9.277,19.199-5.68434e-14,8.728-4.588,16.608-12.272,21.08z"/>
  </g>
</svg>
