<?xml version="1.0" encoding="iso-8859-1"?>
<!-- Generator: Adobe Illustrator 18.1.1, SVG Export Plug-In . SVG Version: 6.00 Build 0)  -->
<svg version="1.1" id="Capa_1" xmlns="http://www.w3.org/2000/svg" xmlns:xlink="http://www.w3.org/1999/xlink" x="0px" y="0px"
	 viewBox="0 0 50.428 50.428" style="enable-background:new 0 0 50.428 50.428;" xml:space="preserve">
<g>
	<g>
		<path style="fill:#010002;" d="M0,37.047c0,0.46,1.343,0.833,3,0.833h7.26c1.657,0,3-0.373,3-0.833s-1.343-0.833-3-0.833H3
			C1.343,36.214,0,36.587,0,37.047z"/>
		<path style="fill:#010002;" d="M0,32.547c0,0.46,1.343,0.833,3,0.833h7.26c1.657,0,3-0.373,3-0.833s-1.343-0.833-3-0.833H3
			C1.343,31.714,0,32.087,0,32.547z"/>
		<path style="fill:#010002;" d="M10.26,40.714H3c-1.657,0-3,0.373-3,0.833s1.343,0.833,3,0.833h7.26c1.657,0,3-0.373,3-0.833
			S11.917,40.714,10.26,40.714z"/>
		<path style="fill:#010002;" d="M3,18.089c-0.604,0-1.166,0.18-1.637,0.488c-0.8,0.524,0.237,1.304,1.895,1.304h6.744
			c1.657,0,2.694-0.779,1.894-1.304c-0.471-0.308-1.032-0.488-1.637-0.488H3z"/>
		<path style="fill:#010002;" d="M0,46.276v1.062c0,1.657,1.344,3,3,3h7.26c1.656,0,3-1.343,3-3c0,0,0-0.476,0-1.062
			s-1.343-1.062-3-1.062H3C1.343,45.214,0,45.69,0,46.276z"/>
		<path style="fill:#010002;" d="M0,23.547c0,0.461,1.343,0.833,3,0.833h7.26c1.657,0,3-0.373,3-0.833s-1.343-0.833-3-0.833H3
			C1.343,22.714,0,23.087,0,23.547z"/>
		<path style="fill:#010002;" d="M0,28.047c0,0.46,1.343,0.833,3,0.833h7.26c1.657,0,3-0.373,3-0.833s-1.343-0.833-3-0.833H3
			C1.343,27.214,0,27.587,0,28.047z"/>
	</g>
	<g>
		<path style="fill:#010002;" d="M18.501,32.547c0,0.46,1.343,0.833,3,0.833h7.259c1.657,0,3-0.373,3-0.833s-1.343-0.833-3-0.833
			h-7.259C19.844,31.714,18.501,32.087,18.501,32.547z"/>
		<path style="fill:#010002;" d="M18.501,18.985c0,0.495,1.343,0.896,3,0.896h7.259c1.657,0,3-0.401,3-0.896
			c0-0.495-1.343-0.896-3-0.896h-7.259C19.844,18.089,18.501,18.49,18.501,18.985z"/>
		<path style="fill:#010002;" d="M18.501,28.047c0,0.46,1.343,0.833,3,0.833h7.259c1.657,0,3-0.373,3-0.833s-1.343-0.833-3-0.833
			h-7.259C19.844,27.214,18.501,27.587,18.501,28.047z"/>
		<path style="fill:#010002;" d="M28.76,40.714h-7.259c-1.657,0-3,0.373-3,0.833s1.343,0.833,3,0.833h7.259c1.657,0,3-0.373,3-0.833
			S30.417,40.714,28.76,40.714z"/>
		<path style="fill:#010002;" d="M18.501,37.047c0,0.46,1.343,0.833,3,0.833h7.259c1.657,0,3-0.373,3-0.833s-1.343-0.833-3-0.833
			h-7.259C19.844,36.214,18.501,36.587,18.501,37.047z"/>
		<path style="fill:#010002;" d="M18.501,23.547c0,0.461,1.343,0.833,3,0.833h7.259c1.657,0,3-0.373,3-0.833s-1.343-0.833-3-0.833
			h-7.259C19.844,22.714,18.501,23.087,18.501,23.547z"/>
		<path style="fill:#010002;" d="M18.501,46.276v1.062c0,1.657,1.343,3,3,3h7.259c1.657,0,3-1.343,3-3c0,0,0-0.476,0-1.062
			s-1.343-1.062-3-1.062h-7.259C19.844,45.214,18.501,45.69,18.501,46.276z"/>
		<path style="fill:#010002;" d="M30.334,0.541c-0.456-0.286-0.994-0.452-1.574-0.452h-7.259c-0.58,0-1.118,0.166-1.575,0.452
			c-0.776,0.487,0.243,1.214,1.9,1.214h6.607C30.091,1.756,31.111,1.028,30.334,0.541z"/>
		<path style="fill:#010002;" d="M31.76,14.422c0-0.46-1.343-0.833-3-0.833h-7.259c-1.657,0-3,0.373-3,0.833
			c0,0.461,1.343,0.833,3,0.833h7.259C30.417,15.256,31.76,14.883,31.76,14.422z"/>
		<path style="fill:#010002;" d="M31.76,5.422c0-0.46-1.343-0.833-3-0.833h-7.259c-1.657,0-3,0.373-3,0.833s1.343,0.833,3,0.833
			h7.259C30.417,6.256,31.76,5.882,31.76,5.422z"/>
		<path style="fill:#010002;" d="M31.76,9.922c0-0.46-1.343-0.833-3-0.833h-7.259c-1.657,0-3,0.373-3,0.833
			c0,0.461,1.343,0.833,3,0.833h7.259C30.417,10.756,31.76,10.383,31.76,9.922z"/>
	</g>
	<g>
		<path style="fill:#010002;" d="M37.168,28.11c0,0.46,1.343,0.833,3,0.833h7.26c1.657,0,3-0.373,3-0.833s-1.343-0.833-3-0.833
			h-7.26C38.511,27.276,37.168,27.65,37.168,28.11z"/>
		<path style="fill:#010002;" d="M37.168,23.61c0,0.461,1.343,0.833,3,0.833h7.26c1.657,0,3-0.373,3-0.833s-1.343-0.833-3-0.833
			h-7.26C38.511,22.776,37.168,23.149,37.168,23.61z"/>
		<path style="fill:#010002;" d="M37.168,37.11c0,0.46,1.343,0.833,3,0.833h7.26c1.657,0,3-0.373,3-0.833s-1.343-0.833-3-0.833
			h-7.26C38.511,36.276,37.168,36.65,37.168,37.11z"/>
		<path style="fill:#010002;" d="M47.428,40.776h-7.26c-1.657,0-3,0.373-3,0.833s1.343,0.833,3,0.833h7.26c1.657,0,3-0.373,3-0.833
			C50.428,41.15,49.085,40.776,47.428,40.776z"/>
		<path style="fill:#010002;" d="M37.168,32.61c0,0.46,1.343,0.833,3,0.833h7.26c1.657,0,3-0.373,3-0.833s-1.343-0.833-3-0.833
			h-7.26C38.511,31.776,37.168,32.15,37.168,32.61z"/>
		<path style="fill:#010002;" d="M37.168,46.308v1.031c0,1.657,1.344,3,3,3h7.26c1.656,0,3-1.343,3-3c0,0,0-0.462,0-1.031
			c0-0.569-1.343-1.031-3-1.031h-7.26C38.511,45.276,37.168,45.738,37.168,46.308z"/>
		<path style="fill:#010002;" d="M50.428,14.485c0-0.46-1.343-0.833-3-0.833h-7.26c-1.657,0-3,0.373-3,0.833
			c0,0.461,1.343,0.833,3,0.833h7.26C49.085,15.318,50.428,14.945,50.428,14.485z"/>
		<path style="fill:#010002;" d="M37.168,19.047c0,0.495,1.343,0.896,3,0.896h7.26c1.657,0,3-0.401,3-0.896
			c0-0.495-1.343-0.896-3-0.896h-7.26C38.511,18.152,37.168,18.552,37.168,19.047z"/>
		<path style="fill:#010002;" d="M48.462,10.279c-0.321-0.122-0.669-0.19-1.034-0.19h-7.26c-0.365,0-0.713,0.068-1.034,0.19
			c-0.547,0.207,0.437,0.539,2.095,0.539h5.139C48.025,10.818,49.009,10.486,48.462,10.279z"/>
	</g>
</g>
<g>
</g>
<g>
</g>
<g>
</g>
<g>
</g>
<g>
</g>
<g>
</g>
<g>
</g>
<g>
</g>
<g>
</g>
<g>
</g>
<g>
</g>
<g>
</g>
<g>
</g>
<g>
</g>
<g>
</g>
</svg>
